<?xml version="1.0" encoding="UTF-8"?>
<svg id="Layer_1" xmlns="http://www.w3.org/2000/svg" version="1.1" viewBox="0 0 512 512">
  <!-- Generator: Adobe Illustrator 29.8.1, SVG Export Plug-In . SVG Version: 2.1.1 Build 2)  -->
  <defs>
    <style>
      .st0 {
        fill: #f15a29;
      }
    </style>
  </defs>
  <path class="st0" d="M276.62,282.87c18.24-1.19,34.67-5.2,49.07-12.39,17.23-8.62,30.58-20.68,40.06-36.19,9.48-15.5,14.22-33.77,14.22-54.8s-4.74-37.82-14.22-53.5c-9.48-15.69-22.84-28.09-40.06-37.23-17.24-9.13-37.23-13.7-59.97-13.7h-135.46v361.9h59.46v-153.55h15.33l123.74,153.55h74.97l-127.13-154.08ZM189.71,234.28v-107.53h73.41c18.27,0,32.4,5.17,42.39,15.5,9.99,10.34,14.99,23.1,14.99,38.26,0,16.89-5.09,30.08-15.25,39.55-10.17,9.49-24.39,14.22-42.66,14.22h-72.9Z"/>
</svg>