<?xml version="1.0" encoding="UTF-8"?>
<svg id="Layer_1" xmlns="http://www.w3.org/2000/svg" version="1.1" viewBox="0 0 135.5 28.75">
  <!-- Generator: Adobe Illustrator 29.8.1, SVG Export Plug-In . SVG Version: 2.1.1 Build 2)  -->
  <path d="M11.85,16.24c1.36-.09,2.59-.39,3.66-.92,1.28-.64,2.28-1.54,2.99-2.7.71-1.16,1.06-2.52,1.06-4.09s-.35-2.82-1.06-3.99-1.7-2.09-2.99-2.78c-1.29-.68-2.78-1.02-4.47-1.02H.93v26.99h4.43v-11.45h1.14l9.23,11.45h5.59l-9.48-11.49ZM5.36,12.61V4.59h5.48c1.36,0,2.42.39,3.16,1.16.75.77,1.12,1.72,1.12,2.85,0,1.26-.38,2.24-1.14,2.95-.76.71-1.82,1.06-3.18,1.06h-5.44Z"/>
  <path d="M134.07,16.66c.46.95.69,2.15.69,3.59,0,2.42-.85,4.33-2.56,5.74-1.71,1.41-4.02,2.12-6.92,2.12-2.13,0-3.95-.39-5.44-1.16-1.49-.77-2.83-1.9-4.01-3.39l3.01-3.01c.75,1.08,1.63,1.92,2.66,2.53,1.03.6,2.34.91,3.93.91,1.49,0,2.68-.31,3.57-.92.89-.62,1.33-1.47,1.33-2.54,0-.9-.23-1.63-.69-2.2-.46-.56-1.07-1.03-1.83-1.41-.76-.37-1.59-.71-2.51-1-.91-.3-1.83-.63-2.74-1-.91-.37-1.75-.84-2.51-1.41-.76-.56-1.37-1.3-1.83-2.2-.46-.9-.69-2.04-.69-3.43,0-1.59.39-2.95,1.18-4.07.78-1.12,1.84-1.97,3.18-2.56,1.34-.59,2.83-.89,4.47-.89,1.77,0,3.36.35,4.76,1.04,1.4.69,2.54,1.58,3.41,2.66l-3.01,3.01c-.77-.87-1.57-1.52-2.41-1.95-.84-.42-1.79-.64-2.87-.64-1.34,0-2.38.27-3.14.81-.76.54-1.14,1.3-1.14,2.27,0,.82.23,1.48.69,1.99.46.5,1.07.93,1.83,1.27.76.35,1.59.67,2.51.98.91.31,1.82.66,2.74,1.04.91.39,1.75.88,2.51,1.48.76.6,1.37,1.38,1.83,2.33Z"/>
  <path d="M49.34,8.82c-.71-1.68-1.69-3.16-2.95-4.43-1.26-1.27-2.72-2.26-4.38-2.97-1.66-.71-3.45-1.06-5.38-1.06s-3.72.35-5.38,1.06c-1.66.71-3.11,1.7-4.36,2.97-1.25,1.27-2.22,2.74-2.93,4.41-.71,1.67-1.06,3.47-1.06,5.4s.35,3.73,1.06,5.42c.71,1.68,1.69,3.16,2.95,4.43,1.26,1.27,2.72,2.27,4.4,2.99,1.67.72,3.47,1.08,5.4,1.08s3.68-.36,5.34-1.08c1.66-.72,3.11-1.71,4.36-2.97,1.25-1.26,2.22-2.73,2.93-4.41s1.06-3.49,1.06-5.42-.35-3.73-1.06-5.42ZM44.67,19.23c-.78,1.45-1.86,2.59-3.24,3.41-1.38.82-2.98,1.23-4.8,1.23-1.34,0-2.57-.24-3.7-.71-1.13-.47-2.1-1.14-2.91-1.99-.81-.85-1.44-1.87-1.89-3.07s-.67-2.5-.67-3.91c0-1.9.39-3.57,1.18-5.01.78-1.44,1.86-2.56,3.24-3.37,1.37-.81,2.96-1.21,4.76-1.21,1.36,0,2.6.23,3.72.69,1.12.46,2.09,1.12,2.91,1.99.82.86,1.46,1.88,1.91,3.05s.67,2.46.67,3.88c0,1.9-.39,3.58-1.18,5.03Z"/>
  <path d="M80.26,8.82c-.71-1.68-1.69-3.16-2.95-4.43-1.26-1.27-2.72-2.26-4.38-2.97-1.66-.71-3.45-1.06-5.38-1.06s-3.72.35-5.38,1.06c-1.66.71-3.11,1.7-4.36,2.97-1.25,1.27-2.22,2.74-2.93,4.41-.71,1.67-1.06,3.47-1.06,5.4s.35,3.73,1.06,5.42c.71,1.68,1.69,3.16,2.95,4.43,1.26,1.27,2.72,2.27,4.4,2.99,1.67.72,3.47,1.08,5.4,1.08s3.68-.36,5.34-1.08c1.66-.72,3.11-1.71,4.36-2.97,1.25-1.26,2.22-2.73,2.93-4.41s1.06-3.49,1.06-5.42-.35-3.73-1.06-5.42ZM75.59,19.23c-.78,1.45-1.86,2.59-3.24,3.41-1.38.82-2.98,1.23-4.8,1.23-1.34,0-2.57-.24-3.7-.71-1.13-.47-2.1-1.14-2.91-1.99-.81-.85-1.44-1.87-1.89-3.07s-.67-2.5-.67-3.91c0-1.9.39-3.57,1.18-5.01.78-1.44,1.86-2.56,3.24-3.37,1.37-.81,2.96-1.21,4.76-1.21,1.36,0,2.6.23,3.72.69,1.12.46,2.09,1.12,2.91,1.99.82.86,1.46,1.88,1.91,3.05s.67,2.46.67,3.88c0,1.9-.39,3.58-1.18,5.03Z"/>
  <path d="M112.44.74v26.99h-4.43V10.28c-1.07.97-2.28,1.76-3.64,2.35-1.6.7-3.33,1.05-5.17,1.05s-3.61-.35-5.22-1.05c-1.38-.59-2.61-1.4-3.7-2.38v17.49h-4.43V.74h3.09s1.33.01,1.33.01c.05,1.16.26,2.24.63,3.23.44,1.16,1.04,2.15,1.83,2.97.78.82,1.72,1.46,2.82,1.92,1.09.46,2.29.69,3.58.69,1.77,0,3.31-.4,4.65-1.19,1.33-.8,2.38-1.9,3.13-3.3.68-1.26,1.04-2.71,1.11-4.32h1.35s3.08-.01,3.08-.01Z"/>
</svg>